HIERARCHY
ROOT Hips
{
	OFFSET 0.00000 0.00000 0.00000
	CHANNELS 6 Xposition Yposition Zposition Zrotation Yrotation Xrotation 
	JOINT LHipJoint
	{
		OFFSET 0 0 0
		CHANNELS 3 Zrotation Yrotation Xrotation
		JOINT LeftHip
		{
			OFFSET 1.62329 -1.80800 0.67318
			CHANNELS 3 Zrotation Yrotation Xrotation
			JOINT LeftKnee
			{
				OFFSET 2.57139 -7.06484 0.00000
				CHANNELS 3 Zrotation Yrotation Xrotation
				JOINT LeftAnkle
				{
					OFFSET 2.52017 -6.92413 0.00000
					CHANNELS 3 Zrotation Yrotation Xrotation
					JOINT LeftToe
					{
						OFFSET 0.23295 -0.64001 2.10214
						CHANNELS 3 Zrotation Yrotation Xrotation
						End Site
						{
							OFFSET 0.00000 -0.00000 1.10139
						}
					}
				}
			}
		}
	}
	JOINT RHipJoint
	{
		OFFSET 0 0 0
		CHANNELS 3 Zrotation Yrotation Xrotation
		JOINT RightHip
		{
			OFFSET -1.48061 -1.80800 0.67318
			CHANNELS 3 Zrotation Yrotation Xrotation
			JOINT RightKnee
			{
				OFFSET -2.63258 -7.23296 0.00000
				CHANNELS 3 Zrotation Yrotation Xrotation
				JOINT RightAnkle
				{
					OFFSET -2.54779 -7.00000 0.00000
					CHANNELS 3 Zrotation Yrotation Xrotation
					JOINT RightToe
					{
						OFFSET -0.23067 -0.63376 2.12161
						CHANNELS 3 Zrotation Yrotation Xrotation
						End Site
						{
							OFFSET -0.00000 -0.00000 1.11000
						}
					}
				}
			}
		}
	}
	JOINT lowerback
	{
		OFFSET 0 0 0
		CHANNELS 3 Zrotation Yrotation Xrotation
		JOINT Chest
		{
			OFFSET -0.02108 2.07573 -0.16981
			CHANNELS 3 Zrotation Yrotation Xrotation
			JOINT Chest2
			{
				OFFSET 0.05070 2.08439 -0.03141
				CHANNELS 3 Zrotation Yrotation Xrotation
				JOINT lowerneck
				{
					OFFSET 0 0 0
					CHANNELS 3 Zrotation Yrotation Xrotation
					JOINT Neck
					{
						OFFSET -0.10731 1.60408 0.31370
						CHANNELS 3 Zrotation Yrotation Xrotation
						JOINT Head
						{
							OFFSET 0.08411 1.65679 -0.30822
							CHANNELS 3 Zrotation Yrotation Xrotation
							End Site
							{
								OFFSET 0.03911 1.69149 -0.14146
							}
						}
					}
				}
				JOINT LeftCollar
				{
					OFFSET 0 0 0
					CHANNELS 3 Zrotation Yrotation Xrotation
					JOINT LeftShoulder
					{
						OFFSET 3.52315 0.73219 -0.54694
CHANNELS 3 Zrotation Xrotation Yrotation
						JOINT LeftElbow
						{
OFFSET 0 -5.324620 -0.000000
CHANNELS 3 Zrotation Xrotation Yrotation
							JOINT LeftWrist
							{
OFFSET 0 -3.484020 -0.000000
CHANNELS 3 Zrotation Xrotation Yrotation
								JOINT lhand
								{
									OFFSET 0 0 0
CHANNELS 3 Zrotation Xrotation Yrotation
									JOINT LFingers
									{
OFFSET 0 -0.572480 -0.000000
CHANNELS 3 Zrotation Xrotation Yrotation
										End Site
										{
OFFSET 0 -0.461540 -0.000000
										}
									}
								}
								JOINT LThumb
								{
OFFSET 0 0.000000 0.000000
CHANNELS 3 Zrotation Xrotation Yrotation
									End Site
									{
OFFSET 0 -0.468590 0.468590
									}
								}
							}
						}
					}
				}
				JOINT RightCollar
				{
					OFFSET 0 0 0
					CHANNELS 3 Zrotation Yrotation Xrotation
					JOINT RightShoulder
					{
						OFFSET -3.41766 0.93592 -0.10019
CHANNELS 3 Zrotation Xrotation Yrotation
						JOINT RightElbow
						{
OFFSET 0 -5.335890 -0.000000
CHANNELS 3 Zrotation Xrotation Yrotation
							JOINT RightWrist
							{
OFFSET 0 -3.641340 -0.000000
CHANNELS 3 Zrotation Xrotation Yrotation
								JOINT rhand
								{
									OFFSET 0 0 0
CHANNELS 3 Zrotation Xrotation Yrotation
									JOINT RFingers
									{
OFFSET 0 -0.734810 -0.000000
CHANNELS 3 Zrotation Xrotation Yrotation
										End Site
										{
OFFSET 0 -0.592420 -0.000000
										}
									}
								}
								JOINT RThumb
								{
OFFSET 0 0.000000 0.000000
CHANNELS 3 Zrotation Xrotation Yrotation
									End Site
									{
OFFSET 0 -0.601470 0.601470
									}
								}
							}
						}
					}
				}
			}
		}
	}
}
MOTION
Frames: 9
Frame Time: 0.008333333333333333
0.692406 15.828058 -3.605204 3.372964 9.288983 346.169808 0.000000 0.000000 0.000000 -13.615766 9.000106 -53.770183 18.056101 19.908232 84.307880 0.438281 -7.574512 17.514989 0.271938 -3.348683 -9.251622 0.000000 0.000000 0.000000 3.154621 -5.491085 -82.732419 -35.879164 -12.319494 143.128118 -0.170211 0.916930 -7.521794 -0.038916 -1.272969 3.500257 -0.440039 -3.123256 20.198293 0.871366 -4.063040 11.208989 1.929855 -2.065879 0.952757 -10.715880 -1.818579 -12.066177 4.368239 -1.250394 34.982062 3.480534 -1.355183 14.070801 0.000000 0.000000 0.000000 3.980151 -11.956933 -37.775204 48.365216 -52.314483 24.874535 16.303043 11.105845 -17.572079 0.000000 0.000000 0.000000 -7.125000 0.000000 0.000000 -11.254927 47.915698 0.819496 0.000000 0.000000 0.000000 -31.308743 23.308368 72.170134 -57.726202 -55.672946 -32.456118 -39.449749 8.385681 -7.630867 0.000000 0.000000 0.000000 7.125000 0.000000 0.000000 -9.039161 20.194947 -5.429524
0.648461 15.893980 -3.642618 4.655611 9.341805 345.348356 0.000000 0.000000 0.000000 -13.046453 9.920943 -54.432556 20.462942 19.992994 91.353790 0.167161 -9.259468 15.798762 0.425528 -4.186380 -11.601682 0.000000 0.000000 0.000000 1.868549 -5.697186 -81.037289 -35.801901 -12.419489 142.767392 -0.173634 1.704901 -7.458995 -0.035801 -1.216530 3.344901 -1.343216 -2.539580 19.650541 0.347841 -3.458535 11.541693 1.733298 -1.794617 1.588832 -10.610472 -2.072638 -12.646971 4.503750 -1.615036 34.231142 3.441350 -1.452351 13.895793 0.000000 0.000000 0.000000 4.579744 -12.030838 -37.564119 49.393250 -52.747873 25.690382 17.026719 13.263614 -18.669353 0.000000 0.000000 0.000000 -7.125000 0.000000 0.000000 -10.923453 49.129005 1.126313 0.000000 0.000000 0.000000 -31.500240 22.837510 72.122210 -58.086617 -55.778107 -32.753955 -36.905914 5.746332 -10.830969 0.000000 0.000000 0.000000 7.125000 0.000000 0.000000 -6.809644 16.585656 -4.614226
0.593117 15.873419 -3.684433 5.025295 10.146609 344.653351 0.000000 0.000000 0.000000 -11.637901 10.038793 -55.885011 23.075781 19.769079 99.027108 -0.012170 -10.232084 14.375182 0.326954 -3.673904 -10.161221 0.000000 0.000000 0.000000 1.489091 -6.413727 -80.483824 -35.799662 -12.422322 142.757132 -0.142573 2.372762 -6.705724 -0.041621 -1.312899 3.610222 -1.766225 -2.402679 19.854454 0.144675 -3.345263 11.580861 1.744681 -1.748549 1.538289 -10.831339 -2.237697 -13.467784 4.672374 -1.740256 33.615519 3.513106 -1.488099 13.821850 0.000000 0.000000 0.000000 4.835903 -12.127726 -36.928649 49.694696 -52.871590 25.930554 18.620703 14.409368 -17.756897 0.000000 0.000000 0.000000 -7.125000 0.000000 0.000000 -9.124468 48.436652 0.779693 0.000000 0.000000 0.000000 -31.943194 22.219397 72.259832 -58.006931 -55.755023 -32.688039 -34.970439 6.203339 -13.230775 0.000000 0.000000 0.000000 7.125000 0.000000 0.000000 -5.165629 14.017659 -3.775577
0.534272 15.849956 -3.721454 4.992585 10.602170 344.015743 0.000000 0.000000 0.000000 -10.158725 11.270760 -57.479079 25.480825 19.262693 106.216945 -0.130374 -10.605116 12.876567 0.673173 -5.240582 -14.597263 0.000000 0.000000 0.000000 1.747349 -6.296270 -79.970085 -35.807036 -12.412843 142.791508 -0.129179 2.564881 -6.386596 -0.048610 -1.420801 3.907515 -1.754946 -2.307586 20.125384 -0.125228 -3.217489 11.779677 1.436720 -1.673155 1.597333 -11.234161 -2.698306 -15.027074 5.115660 -2.245291 32.950512 3.667475 -1.669681 13.938200 0.000000 0.000000 0.000000 5.360483 -12.877974 -36.005187 49.965629 -52.981615 26.146746 18.743739 14.213584 -17.717304 0.000000 0.000000 0.000000 -7.125000 0.000000 0.000000 -8.995995 48.414179 0.763403 0.000000 0.000000 0.000000 -31.936886 21.008620 72.372003 -57.819715 -55.700417 -32.533381 -32.904428 6.417527 -14.799956 0.000000 0.000000 0.000000 7.125000 0.000000 0.000000 -3.578106 12.536867 -2.721619
0.483714 15.829135 -3.754657 5.396488 11.181774 343.491105 0.000000 0.000000 0.000000 -9.981635 13.174397 -58.364011 27.276845 18.679672 111.736781 -0.115466 -9.561496 11.399912 0.808462 -5.738281 -16.026798 0.000000 0.000000 0.000000 1.378575 -6.626720 -79.589854 -35.838085 -12.372806 142.936131 -0.132564 2.541720 -6.468469 -0.059743 -1.576338 4.336066 -2.212010 -2.047880 20.572965 -0.383777 -2.960143 11.732755 1.393948 -1.550785 1.324195 -11.955769 -3.189170 -14.948369 5.621523 -2.897364 31.046887 3.830579 -1.923086 13.191432 0.000000 0.000000 0.000000 5.272772 -12.959775 -35.693625 50.857246 -53.335490 26.860278 17.923497 15.406845 -17.084914 0.000000 0.000000 0.000000 -7.125000 0.000000 0.000000 -9.588932 47.648639 0.632167 0.000000 0.000000 0.000000 -32.004620 20.526681 71.873113 -58.291904 -55.837306 -32.923776 -29.336606 7.311826 -15.795147 0.000000 0.000000 0.000000 7.125000 0.000000 0.000000 -1.090993 12.004248 -0.840462
0.434002 15.792433 -3.804981 2.932607 11.229018 343.006329 0.000000 0.000000 0.000000 -6.989685 15.876734 -59.999095 28.823978 18.019897 116.648364 -0.117174 -9.130830 10.606692 0.878542 -5.973066 -16.706936 0.000000 0.000000 0.000000 4.814558 -5.160213 -79.770434 -35.790826 -12.433672 142.716135 -0.163655 0.837746 -7.390655 -0.126278 -2.290275 6.308441 0.104624 -2.310146 20.834443 0.158757 -2.895250 11.586762 0.669455 -1.418037 0.937819 -12.437163 -3.462484 -15.352203 5.819571 -3.132513 29.506596 3.905940 -2.011217 12.679173 0.000000 0.000000 0.000000 4.906741 -12.469154 -35.096033 52.566117 -53.979304 28.236829 16.951173 17.111694 -17.110602 0.000000 0.000000 0.000000 -7.125000 0.000000 0.000000 -10.508164 47.539162 0.666126 0.000000 0.000000 0.000000 -32.073841 20.013841 69.966089 -60.069230 -56.328291 -34.398710 -22.432686 11.188933 -16.804196 0.000000 0.000000 0.000000 7.125000 0.000000 0.000000 3.583911 11.912771 2.773147
0.413449 15.780643 -3.821863 3.167509 11.882102 342.785316 0.000000 0.000000 0.000000 -8.286439 18.105539 -59.819493 29.529674 17.665824 118.951132 0.033945 -7.750426 11.741179 0.719823 -5.420464 -15.112055 0.000000 0.000000 0.000000 4.386314 -5.814248 -79.523796 -35.798476 -12.423899 142.751624 -0.157625 1.206372 -7.171189 -0.158303 -2.562877 7.064037 -0.129035 -2.328652 20.727123 -0.013759 -2.959375 11.551343 0.627100 -1.453856 0.954736 -12.269577 -3.436028 -15.897469 5.272812 -2.877229 28.203352 3.663419 -1.908675 12.228518 0.000000 0.000000 0.000000 4.651446 -12.045912 -34.306515 53.143163 -54.187140 28.704204 16.622556 19.895236 -17.396020 0.000000 0.000000 0.000000 -7.125000 0.000000 0.000000 -10.901283 47.782707 0.757195 0.000000 0.000000 0.000000 -31.841715 19.135259 66.555088 -62.395635 -56.914302 -36.341726 -16.594477 15.889677 -18.170839 0.000000 0.000000 0.000000 7.125000 0.000000 0.000000 7.509578 11.199136 5.961399
0.409647 15.777056 -3.840704 2.753764 12.207189 342.425242 0.000000 0.000000 0.000000 -8.924222 20.249331 -58.628467 29.749395 17.548387 119.677263 0.123238 -6.626684 12.050206 0.542851 -4.717856 -13.105970 0.000000 0.000000 0.000000 4.770974 -6.098186 -79.205780 -35.774675 -12.454347 142.641171 -0.142562 1.187289 -6.811712 -0.080125 -1.824069 5.019638 0.310394 -2.454567 20.689144 0.042174 -3.046011 11.399786 0.458643 -1.477635 0.789014 -12.687451 -3.561946 -16.168759 5.366350 -2.913124 27.227918 3.737797 -1.928273 11.914491 0.000000 0.000000 0.000000 4.417617 -11.192801 -33.438347 52.759615 -54.049602 28.393417 16.883966 22.651751 -17.164906 0.000000 0.000000 0.000000 -7.125000 0.000000 0.000000 -10.587056 47.584907 0.683104 0.000000 0.000000 0.000000 -31.150020 18.420370 61.291549 -65.508609 -57.606794 -38.960332 -17.403002 19.822696 -17.357602 0.000000 0.000000 0.000000 7.125000 0.000000 0.000000 6.946726 11.944362 5.400778
0.417779 15.770636 -3.844133 2.090797 12.390183 342.069149 0.000000 0.000000 0.000000 -9.536893 22.571269 -56.928957 29.655009 17.599316 119.364630 0.029561 -4.812989 7.789256 0.855024 -5.896513 -16.484591 0.000000 0.000000 0.000000 5.349399 -6.388289 -78.892404 -35.755930 -12.478233 142.554473 -0.149704 0.850419 -7.056594 -0.147181 -2.470359 6.807603 0.994404 -2.506992 20.464578 0.258078 -2.995281 11.307349 0.286287 -1.427115 0.778030 -12.937897 -3.856391 -16.452048 5.361181 -3.206583 26.294311 3.708111 -2.057687 11.648294 0.000000 0.000000 0.000000 4.488874 -10.399680 -33.157588 51.605619 -53.622780 27.461719 16.857061 23.717730 -15.531334 0.000000 0.000000 0.000000 -7.125000 0.000000 0.000000 -10.150110 45.921681 0.233068 0.000000 0.000000 0.000000 -29.897351 17.475776 54.238949 -70.017284 -58.434383 -42.785647 -19.837969 22.997400 -15.242002 0.000000 0.000000 0.000000 7.125000 0.000000 0.000000 5.235060 13.873583 3.843579
